<svg width="46" height="19" viewBox="0 0 46 19" fill="none" xmlns="http://www.w3.org/2000/svg">
<path d="M9.528 18.336C7.016 18.336 4.928 17.496 3.264 15.816C1.616 14.152 0.792 12.08 0.792 9.6C0.792 7.104 1.616 5.032 3.264 3.384C4.928 1.704 7.016 0.863999 9.528 0.863999C11.048 0.863999 12.448 1.224 13.728 1.944C15.024 2.648 16.032 3.608 16.752 4.824L13.896 6.48C13.48 5.728 12.888 5.144 12.12 4.728C11.352 4.296 10.488 4.08 9.528 4.08C7.896 4.08 6.576 4.592 5.568 5.616C4.576 6.656 4.08 7.984 4.08 9.6C4.08 11.2 4.576 12.52 5.568 13.56C6.576 14.584 7.896 15.096 9.528 15.096C10.488 15.096 11.352 14.888 12.12 14.472C12.904 14.04 13.496 13.456 13.896 12.72L16.752 14.376C16.032 15.592 15.024 16.56 13.728 17.28C12.448 17.984 11.048 18.336 9.528 18.336ZM24.5226 18.336C22.8746 18.336 21.4826 17.968 20.3466 17.232C19.2106 16.496 18.4026 15.48 17.9226 14.184L20.7546 12.528C21.4106 14.24 22.6986 15.096 24.6186 15.096C25.5146 15.096 26.1866 14.936 26.6346 14.616C27.0826 14.296 27.3066 13.864 27.3066 13.32C27.3066 12.728 27.0426 12.272 26.5146 11.952C25.9866 11.616 25.0426 11.256 23.6826 10.872C22.2106 10.424 21.0506 9.904 20.2026 9.312C19.1466 8.528 18.6186 7.376 18.6186 5.856C18.6186 4.32 19.1546 3.112 20.2266 2.232C21.2986 1.32 22.6026 0.863999 24.1386 0.863999C25.4826 0.863999 26.6746 1.192 27.7146 1.848C28.7546 2.504 29.5626 3.432 30.1386 4.632L27.3546 6.24C26.6826 4.8 25.6106 4.08 24.1386 4.08C23.4666 4.08 22.9306 4.24 22.5306 4.56C22.1306 4.864 21.9306 5.264 21.9306 5.76C21.9306 6.288 22.1466 6.72 22.5786 7.056C23.0586 7.392 23.9066 7.744 25.1226 8.112L26.2746 8.496C26.4826 8.56 26.8426 8.696 27.3546 8.904C27.8346 9.08 28.1866 9.248 28.4106 9.408C29.1946 9.888 29.7226 10.384 29.9946 10.896C30.4106 11.568 30.6186 12.36 30.6186 13.272C30.6186 14.824 30.0506 16.056 28.9146 16.968C27.7786 17.88 26.3146 18.336 24.5226 18.336ZM42.3816 11.448V1.2H45.6936V18H43.1736L35.9736 7.728V18H32.6616V1.2H35.1816L42.3816 11.448Z" fill="url(#paint0_linear)"/>
<defs>
<linearGradient id="paint0_linear" x1="24" y1="-4" x2="24" y2="26" gradientUnits="userSpaceOnUse">
<stop stop-color="#FF8A00"/>
<stop offset="1" stop-color="white"/>
</linearGradient>
</defs>
</svg>
