<svg width="138" height="19" viewBox="0 0 138 19" fill="none" xmlns="http://www.w3.org/2000/svg">
<path d="M9.528 18.336C7.016 18.336 4.928 17.496 3.264 15.816C1.616 14.152 0.792 12.08 0.792 9.6C0.792 7.104 1.616 5.032 3.264 3.384C4.928 1.704 7.016 0.863999 9.528 0.863999C11.048 0.863999 12.448 1.224 13.728 1.944C15.024 2.648 16.032 3.608 16.752 4.824L13.896 6.48C13.48 5.728 12.888 5.144 12.12 4.728C11.352 4.296 10.488 4.08 9.528 4.08C7.896 4.08 6.576 4.592 5.568 5.616C4.576 6.656 4.08 7.984 4.08 9.6C4.08 11.2 4.576 12.52 5.568 13.56C6.576 14.584 7.896 15.096 9.528 15.096C10.488 15.096 11.352 14.888 12.12 14.472C12.904 14.04 13.496 13.456 13.896 12.72L16.752 14.376C16.032 15.592 15.024 16.56 13.728 17.28C12.448 17.984 11.048 18.336 9.528 18.336ZM24.5226 18.336C22.8746 18.336 21.4826 17.968 20.3466 17.232C19.2106 16.496 18.4026 15.48 17.9226 14.184L20.7546 12.528C21.4106 14.24 22.6986 15.096 24.6186 15.096C25.5146 15.096 26.1866 14.936 26.6346 14.616C27.0826 14.296 27.3066 13.864 27.3066 13.32C27.3066 12.728 27.0426 12.272 26.5146 11.952C25.9866 11.616 25.0426 11.256 23.6826 10.872C22.2106 10.424 21.0506 9.904 20.2026 9.312C19.1466 8.528 18.6186 7.376 18.6186 5.856C18.6186 4.32 19.1546 3.112 20.2266 2.232C21.2986 1.32 22.6026 0.863999 24.1386 0.863999C25.4826 0.863999 26.6746 1.192 27.7146 1.848C28.7546 2.504 29.5626 3.432 30.1386 4.632L27.3546 6.24C26.6826 4.8 25.6106 4.08 24.1386 4.08C23.4666 4.08 22.9306 4.24 22.5306 4.56C22.1306 4.864 21.9306 5.264 21.9306 5.76C21.9306 6.288 22.1466 6.72 22.5786 7.056C23.0586 7.392 23.9066 7.744 25.1226 8.112L26.2746 8.496C26.4826 8.56 26.8426 8.696 27.3546 8.904C27.8346 9.08 28.1866 9.248 28.4106 9.408C29.1946 9.888 29.7226 10.384 29.9946 10.896C30.4106 11.568 30.6186 12.36 30.6186 13.272C30.6186 14.824 30.0506 16.056 28.9146 16.968C27.7786 17.88 26.3146 18.336 24.5226 18.336ZM42.3816 11.448V1.2H45.6936V18H43.1736L35.9736 7.728V18H32.6616V1.2H35.1816L42.3816 11.448ZM55.074 18.336C53.202 18.336 51.666 17.808 50.466 16.752C49.266 15.696 48.666 14.28 48.666 12.504V1.2H51.954V12.24C51.954 13.136 52.21 13.84 52.722 14.352C53.25 14.848 54.034 15.096 55.074 15.096C56.114 15.096 56.89 14.848 57.402 14.352C57.93 13.84 58.194 13.136 58.194 12.24V1.2H61.506V12.504C61.506 14.28 60.906 15.696 59.706 16.752C58.506 17.808 56.962 18.336 55.074 18.336ZM77.5217 1.2H80.9297V18H77.6417V7.104L72.9137 14.904H72.5297L67.8017 7.128V18H64.4897V1.2H67.8977L72.7217 9.144L77.5217 1.2ZM94.212 9.288C95.684 10.136 96.42 11.416 96.42 13.128C96.42 14.552 95.916 15.72 94.908 16.632C93.9 17.544 92.66 18 91.188 18H84.06V1.2H90.684C92.108 1.2 93.316 1.648 94.308 2.544C95.3 3.44 95.796 4.568 95.796 5.928C95.796 7.32 95.268 8.44 94.212 9.288ZM90.684 4.296H87.372V7.992H90.684C91.196 7.992 91.62 7.816 91.956 7.464C92.308 7.112 92.484 6.672 92.484 6.144C92.484 5.616 92.316 5.176 91.98 4.824C91.644 4.472 91.212 4.296 90.684 4.296ZM87.372 14.904H91.188C91.748 14.904 92.212 14.72 92.58 14.352C92.948 13.968 93.132 13.488 93.132 12.912C93.132 12.352 92.948 11.888 92.58 11.52C92.212 11.136 91.748 10.944 91.188 10.944H87.372V14.904ZM101.903 11.064V14.832H108.983V18H98.5913V1.2H108.863V4.368H101.903V7.944H108.263V11.064H101.903ZM124.11 18H120.534L117.15 12.168H114.63V18H111.318V1.2H118.038C119.59 1.2 120.91 1.744 121.998 2.832C123.086 3.92 123.63 5.232 123.63 6.768C123.63 7.808 123.334 8.776 122.742 9.672C122.15 10.552 121.366 11.216 120.39 11.664L124.11 18ZM118.038 4.296H114.63V9.264H118.038C118.662 9.264 119.198 9.024 119.646 8.544C120.094 8.048 120.318 7.456 120.318 6.768C120.318 6.08 120.094 5.496 119.646 5.016C119.198 4.536 118.662 4.296 118.038 4.296ZM131.538 18.336C129.89 18.336 128.498 17.968 127.362 17.232C126.226 16.496 125.418 15.48 124.938 14.184L127.77 12.528C128.426 14.24 129.714 15.096 131.634 15.096C132.53 15.096 133.202 14.936 133.65 14.616C134.098 14.296 134.322 13.864 134.322 13.32C134.322 12.728 134.058 12.272 133.53 11.952C133.002 11.616 132.058 11.256 130.698 10.872C129.226 10.424 128.066 9.904 127.218 9.312C126.162 8.528 125.634 7.376 125.634 5.856C125.634 4.32 126.17 3.112 127.242 2.232C128.314 1.32 129.618 0.863999 131.154 0.863999C132.498 0.863999 133.69 1.192 134.73 1.848C135.77 2.504 136.578 3.432 137.154 4.632L134.37 6.24C133.698 4.8 132.626 4.08 131.154 4.08C130.482 4.08 129.946 4.24 129.546 4.56C129.146 4.864 128.946 5.264 128.946 5.76C128.946 6.288 129.162 6.72 129.594 7.056C130.074 7.392 130.922 7.744 132.138 8.112L133.29 8.496C133.498 8.56 133.858 8.696 134.37 8.904C134.85 9.08 135.202 9.248 135.426 9.408C136.21 9.888 136.738 10.384 137.01 10.896C137.426 11.568 137.634 12.36 137.634 13.272C137.634 14.824 137.066 16.056 135.93 16.968C134.794 17.88 133.33 18.336 131.538 18.336Z" fill="url(#paint0_linear)"/>
<defs>
<linearGradient id="paint0_linear" x1="69.5" y1="-4" x2="69.5" y2="26" gradientUnits="userSpaceOnUse">
<stop stop-color="#FF8A00"/>
<stop offset="1" stop-color="white"/>
</linearGradient>
</defs>
</svg>
