<svg width="90" height="19" viewBox="0 0 90 19" fill="none" xmlns="http://www.w3.org/2000/svg">
<path d="M6.824 18.336C4.952 18.336 3.416 17.808 2.216 16.752C1.016 15.696 0.416 14.28 0.416 12.504V1.2H3.704V12.24C3.704 13.136 3.96 13.84 4.472 14.352C5 14.848 5.784 15.096 6.824 15.096C7.864 15.096 8.64 14.848 9.152 14.352C9.68 13.84 9.944 13.136 9.944 12.24V1.2H13.256V12.504C13.256 14.28 12.656 15.696 11.456 16.752C10.256 17.808 8.712 18.336 6.824 18.336ZM29.2717 1.2H32.6797V18H29.3917V7.104L24.6637 14.904H24.2797L19.5517 7.128V18H16.2397V1.2H19.6477L24.4717 9.144L29.2717 1.2ZM45.962 9.288C47.434 10.136 48.17 11.416 48.17 13.128C48.17 14.552 47.666 15.72 46.658 16.632C45.65 17.544 44.41 18 42.938 18H35.81V1.2H42.434C43.858 1.2 45.066 1.648 46.058 2.544C47.05 3.44 47.546 4.568 47.546 5.928C47.546 7.32 47.018 8.44 45.962 9.288ZM42.434 4.296H39.122V7.992H42.434C42.946 7.992 43.37 7.816 43.706 7.464C44.058 7.112 44.234 6.672 44.234 6.144C44.234 5.616 44.066 5.176 43.73 4.824C43.394 4.472 42.962 4.296 42.434 4.296ZM39.122 14.904H42.938C43.498 14.904 43.962 14.72 44.33 14.352C44.698 13.968 44.882 13.488 44.882 12.912C44.882 12.352 44.698 11.888 44.33 11.52C43.962 11.136 43.498 10.944 42.938 10.944H39.122V14.904ZM53.6533 11.064V14.832H60.7333V18H50.3413V1.2H60.6133V4.368H53.6533V7.944H60.0133V11.064H53.6533ZM75.8598 18H72.2838L68.8998 12.168H66.3798V18H63.0678V1.2H69.7878C71.3398 1.2 72.6598 1.744 73.7478 2.832C74.8358 3.92 75.3798 5.232 75.3798 6.768C75.3798 7.808 75.0838 8.776 74.4918 9.672C73.8998 10.552 73.1158 11.216 72.1398 11.664L75.8598 18ZM69.7878 4.296H66.3798V9.264H69.7878C70.4118 9.264 70.9478 9.024 71.3958 8.544C71.8438 8.048 72.0678 7.456 72.0678 6.768C72.0678 6.08 71.8438 5.496 71.3958 5.016C70.9478 4.536 70.4118 4.296 69.7878 4.296ZM83.2882 18.336C81.6402 18.336 80.2482 17.968 79.1122 17.232C77.9762 16.496 77.1682 15.48 76.6882 14.184L79.5202 12.528C80.1762 14.24 81.4642 15.096 83.3842 15.096C84.2802 15.096 84.9522 14.936 85.4002 14.616C85.8482 14.296 86.0722 13.864 86.0722 13.32C86.0722 12.728 85.8082 12.272 85.2802 11.952C84.7522 11.616 83.8082 11.256 82.4482 10.872C80.9762 10.424 79.8162 9.904 78.9682 9.312C77.9122 8.528 77.3842 7.376 77.3842 5.856C77.3842 4.32 77.9202 3.112 78.9922 2.232C80.0642 1.32 81.3682 0.863999 82.9042 0.863999C84.2482 0.863999 85.4402 1.192 86.4802 1.848C87.5202 2.504 88.3282 3.432 88.9042 4.632L86.1202 6.24C85.4482 4.8 84.3762 4.08 82.9042 4.08C82.2322 4.08 81.6962 4.24 81.2962 4.56C80.8962 4.864 80.6962 5.264 80.6962 5.76C80.6962 6.288 80.9122 6.72 81.3442 7.056C81.8242 7.392 82.6722 7.744 83.8882 8.112L85.0402 8.496C85.2482 8.56 85.6082 8.696 86.1202 8.904C86.6002 9.08 86.9522 9.248 87.1762 9.408C87.9602 9.888 88.4882 10.384 88.7602 10.896C89.1762 11.568 89.3842 12.36 89.3842 13.272C89.3842 14.824 88.8162 16.056 87.6802 16.968C86.5442 17.88 85.0802 18.336 83.2882 18.336Z" fill="url(#paint0_linear)"/>
<defs>
<linearGradient id="paint0_linear" x1="44.5" y1="-4" x2="44.5" y2="26" gradientUnits="userSpaceOnUse">
<stop stop-color="#FF8A00"/>
<stop offset="1" stop-color="white"/>
</linearGradient>
</defs>
</svg>
